<svg width="162" height="45" viewBox="0 0 162 45" fill="none" xmlns="http://www.w3.org/2000/svg">
<path d="M49.428 12.04H54.468V28H49.428V12.04ZM77.1823 16.016C77.481 16.464 77.6303 18.2 77.6303 21.224V28H72.8423V21.7V20.188C72.8423 19.4973 72.777 19.0867 72.6463 18.956C72.497 18.8067 72.1797 18.732 71.6943 18.732L71.3583 18.76C70.7797 18.7973 70.229 18.928 69.7063 19.152C69.725 19.544 69.7343 20.2347 69.7343 21.224V28H64.9463V21.7V20.02C64.9463 19.4413 64.881 19.0867 64.7503 18.956C64.601 18.8067 64.2837 18.732 63.7983 18.732L63.4623 18.76C62.9397 18.7787 62.3983 18.9 61.8383 19.124V28H57.0503V15.12H60.9423L61.4463 17.22C62.0623 16.3987 62.7717 15.8013 63.5743 15.428C64.377 15.036 65.189 14.84 66.0103 14.84C66.701 14.84 67.3543 14.9427 67.9703 15.148C68.605 15.3533 69.0437 15.6427 69.2863 16.016C69.3983 16.184 69.4917 16.492 69.5663 16.94C70.1637 16.212 70.845 15.68 71.6103 15.344C72.3757 15.008 73.141 14.84 73.9063 14.84C74.597 14.84 75.2503 14.9427 75.8663 15.148C76.501 15.3533 76.9397 15.6427 77.1823 16.016ZM87.527 28L87.079 26.236C86.2204 27.636 85.0257 28.336 83.495 28.336C82.2444 28.336 81.2177 27.9907 80.415 27.3C79.631 26.5907 79.239 25.6013 79.239 24.332C79.239 23.548 79.463 22.8667 79.911 22.288C80.3777 21.6907 81.0124 21.2707 81.815 21.028C82.8604 20.7293 84.475 20.5613 86.659 20.524C86.659 19.292 86.603 18.6387 86.491 18.564C86.3977 18.4893 86.099 18.452 85.595 18.452C85.2777 18.452 84.839 18.4707 84.279 18.508C83.383 18.5453 82.1697 18.648 80.639 18.816C80.4897 17.808 80.3777 16.7253 80.303 15.568C81.2924 15.3627 82.3284 15.1947 83.411 15.064C84.4937 14.9147 85.4644 14.84 86.323 14.84C87.8164 14.84 88.9364 15.092 89.683 15.596C90.4297 16.0813 90.915 16.7253 91.139 17.528C91.363 18.3307 91.4657 19.348 91.447 20.58L91.419 24.696L91.503 28H87.527ZM85.119 25.2C85.6044 25.2 86.1177 25.1067 86.659 24.92V22.848H86.435C85.0537 22.848 84.2884 22.9227 84.139 23.072C84.0457 23.1653 83.971 23.3053 83.915 23.492C83.8777 23.6787 83.859 23.856 83.859 24.024C83.859 24.472 83.9617 24.78 84.167 24.948C84.3724 25.116 84.6897 25.2 85.119 25.2ZM100.329 14.896C101.206 14.896 102.121 14.9613 103.073 15.092C104.025 15.204 105.136 15.3627 106.405 15.568V26.712C106.405 29.3813 105.518 31.4533 103.745 32.928C103.521 33.1147 103.017 33.2733 102.233 33.404C101.449 33.5347 100.562 33.6 99.5729 33.6C97.4263 33.6 95.7276 33.32 94.4769 32.76C94.4583 32.3493 94.4863 31.808 94.5609 31.136C94.6543 30.464 94.7476 29.932 94.8409 29.54C96.1849 29.7453 97.5009 29.848 98.7889 29.848C99.4423 29.848 99.9929 29.8107 100.441 29.736C100.908 29.68 101.197 29.5867 101.309 29.456C101.458 29.3067 101.57 28.7467 101.645 27.776C101.664 27.5147 101.673 27.132 101.673 26.628V25.928C101.206 26.6187 100.609 27.1133 99.8809 27.412C99.1529 27.7107 98.4996 27.86 97.9209 27.86C96.3529 27.86 95.1676 27.3467 94.3649 26.32C93.5623 25.2933 93.1609 23.7907 93.1609 21.812C93.1609 20.5053 93.3383 19.2827 93.6929 18.144C94.0663 16.9867 94.5703 16.184 95.2049 15.736C95.6156 15.456 96.2783 15.2507 97.1929 15.12C98.1263 14.9707 99.1716 14.896 100.329 14.896ZM99.7409 24.36C100.432 24.36 101.057 24.248 101.617 24.024V18.172C101.412 18.1347 101.104 18.0973 100.693 18.06C100.506 18.0413 100.226 18.032 99.8529 18.032C99.2743 18.032 98.9103 18.088 98.7609 18.2C98.5556 18.3493 98.3876 18.7693 98.2569 19.46C98.1449 20.132 98.0889 20.8413 98.0889 21.588C98.0889 22.6147 98.2009 23.3333 98.4249 23.744C98.6676 24.1547 99.1063 24.36 99.7409 24.36ZM111.167 13.524C110.533 13.524 109.982 13.3093 109.515 12.88C109.067 12.4507 108.843 11.9373 108.843 11.34C108.843 10.7427 109.067 10.2293 109.515 9.8C109.982 9.37067 110.533 9.156 111.167 9.156C111.802 9.156 112.343 9.37067 112.791 9.8C113.239 10.2293 113.463 10.7427 113.463 11.34C113.463 11.9373 113.239 12.4507 112.791 12.88C112.343 13.3093 111.802 13.524 111.167 13.524ZM108.759 15.12H113.547V28H108.759V15.12ZM128.381 15.932C128.549 16.1373 128.671 16.6507 128.745 17.472C128.839 18.2933 128.885 19.544 128.885 21.224V28H124.097V21.28V20.132C124.097 19.5347 124.051 19.1613 123.957 19.012C123.808 18.8253 123.463 18.732 122.921 18.732C122.66 18.732 122.464 18.7413 122.333 18.76C121.811 18.7787 121.269 18.9 120.709 19.124V28H115.921V15.12H119.813L120.345 17.276C121.689 15.652 123.295 14.84 125.161 14.84C125.833 14.84 126.459 14.9333 127.037 15.12C127.635 15.3067 128.083 15.5773 128.381 15.932ZM133.589 13.524C132.955 13.524 132.404 13.3093 131.937 12.88C131.489 12.4507 131.265 11.9373 131.265 11.34C131.265 10.7427 131.489 10.2293 131.937 9.8C132.404 9.37067 132.955 9.156 133.589 9.156C134.224 9.156 134.765 9.37067 135.213 9.8C135.661 10.2293 135.885 10.7427 135.885 11.34C135.885 11.9373 135.661 12.4507 135.213 12.88C134.765 13.3093 134.224 13.524 133.589 13.524ZM131.181 15.12H135.969V28H131.181V15.12ZM144.447 13.664C144.317 13.7947 144.251 14.196 144.251 14.868V15.12H147.219V17.864H144.251V28H139.463V17.864H137.363V15.372L139.463 15.12V14.7C139.463 13.8787 139.575 13.0947 139.799 12.348C140.023 11.6013 140.229 11.1533 140.415 11.004C140.994 10.5187 142.226 10.276 144.111 10.276C145.138 10.276 146.286 10.3507 147.555 10.5C147.555 10.724 147.518 11.172 147.443 11.844C147.387 12.516 147.331 13.0853 147.275 13.552L146.071 13.524C145.082 13.524 144.541 13.5707 144.447 13.664ZM161.761 15.12L158.401 25.9C157.748 27.972 157.16 29.4747 156.637 30.408C156.114 31.36 155.592 32.0227 155.069 32.396C154.77 32.6013 154.294 32.76 153.641 32.872C153.006 32.984 152.316 33.04 151.569 33.04C150.449 33.04 149.553 32.9373 148.881 32.732C148.862 32.284 148.881 31.7333 148.937 31.08C148.993 30.4453 149.068 29.904 149.161 29.456C149.945 29.4933 150.71 29.512 151.457 29.512C152.017 29.512 152.437 29.5027 152.717 29.484C152.997 28.9427 153.258 28.3733 153.501 27.776L151.569 27.664L147.257 15.12H152.325L154.565 24.136L154.593 24.668H154.677L156.693 15.12H161.761Z" fill="#6B5DFF"/>
<path d="M24.7835 16.9482H19.2283C19.0078 16.9482 18.7874 17.125 18.7874 17.3904V23.8026C18.7874 24.0237 18.9637 24.2449 19.2283 24.2449H22.7553C22.9758 24.2449 23.1962 24.0679 23.1962 23.8026V21.8126C23.1962 21.5915 23.3726 21.3704 23.6371 21.3704H28.6192C29.0161 21.3704 29.1925 21.8568 28.9278 22.1221L27.6052 23.4046C27.2525 23.7584 27.0761 24.2891 27.1643 24.8197L28.2224 31.4088C28.2666 31.7626 27.9138 32.0279 27.6052 31.8511L21.6973 28.7555C21.2564 28.5343 20.6832 28.5343 20.2424 28.7555L14.3344 31.8511C14.0257 32.0279 13.629 31.7626 13.7171 31.4088L14.8634 24.8197C14.9516 24.2891 14.7753 23.7584 14.4225 23.4046L9.6168 18.7613C9.35227 18.496 9.48454 18.0537 9.83725 18.0095L16.4066 17.0366C16.9356 16.9482 17.3765 16.6386 17.597 16.1522L20.551 10.1822C20.7273 9.87261 21.1682 9.87261 21.3445 10.1822L23.2845 14.1179C23.549 14.6486 24.1221 15.0024 24.6953 15.0024H38.4071C38.7598 15.0024 38.8039 14.5159 38.4511 14.4717L28.0461 12.9681C27.7374 12.924 27.517 12.7471 27.3848 12.4818L21.3887 0.232167C21.2123 -0.0773889 20.7714 -0.0773889 20.595 0.232167L14.5548 12.4818C14.4225 12.7471 14.158 12.924 13.8935 12.9681L0.402163 14.9139C0.00535918 15.0024 -0.126908 15.4446 0.137627 15.6657L9.92543 25.2177C10.1459 25.4389 10.2341 25.7042 10.19 26.0137L7.89733 39.5015C7.85324 39.8553 8.20596 40.1206 8.51458 39.9437L20.595 33.5757C20.8595 33.4431 21.1682 33.4431 21.4327 33.5757L33.5132 39.9437C33.8218 40.1206 34.2186 39.8553 34.1304 39.5015L31.8377 26.0137C31.7937 25.7484 31.8818 25.4389 32.1023 25.2177L39.8179 17.6999C40.0824 17.4346 39.9061 16.9482 39.5093 16.9482H24.7835Z" fill="url(#paint0_linear_13_8814)"/>
<defs>
<linearGradient id="paint0_linear_13_8814" x1="0" y1="0" x2="40" y2="40" gradientUnits="userSpaceOnUse">
<stop stop-color="#8386FF"/>
<stop offset="1" stop-color="#4A25FF"/>
</linearGradient>
</defs>
</svg>
